<?xml version="1.0" encoding="UTF-8" standalone="no"?>
<!-- Created with Inkscape (http://www.inkscape.org/) -->

<svg
   xmlns:dc="http://purl.org/dc/elements/1.1/"
   xmlns:cc="http://creativecommons.org/ns#"
   xmlns:rdf="http://www.w3.org/1999/02/22-rdf-syntax-ns#"
   xmlns:svg="http://www.w3.org/2000/svg"
   xmlns="http://www.w3.org/2000/svg"
   xmlns:sodipodi="http://sodipodi.sourceforge.net/DTD/sodipodi-0.dtd"
   xmlns:inkscape="http://www.inkscape.org/namespaces/inkscape"
   width="744.09448819"
   height="1052.3622047"
   id="svg2"
   version="1.1"
   inkscape:version="0.48.2 r9819"
   sodipodi:docname="richistron_logo.svg">
  <defs
     id="defs4" />
  <sodipodi:namedview
     id="base"
     pagecolor="#ffffff"
     bordercolor="#666666"
     borderopacity="1.0"
     inkscape:pageopacity="0.0"
     inkscape:pageshadow="2"
     inkscape:zoom="1.4"
     inkscape:cx="375.55679"
     inkscape:cy="522.74294"
     inkscape:document-units="px"
     inkscape:current-layer="layer1"
     showgrid="false"
     inkscape:window-width="1920"
     inkscape:window-height="1056"
     inkscape:window-x="1920"
     inkscape:window-y="24"
     inkscape:window-maximized="1" />
  <metadata
     id="metadata7">
    <rdf:RDF>
      <cc:Work
         rdf:about="">
        <dc:format>image/svg+xml</dc:format>
        <dc:type
           rdf:resource="http://purl.org/dc/dcmitype/StillImage" />
        <dc:title></dc:title>
      </cc:Work>
    </rdf:RDF>
  </metadata>
  <g
     inkscape:label="Layer 1"
     inkscape:groupmode="layer"
     id="layer1">
    <path
       style="fill:#000000"
       d="m 289.5155,589.31827 c -8.48213,-0.5869 -17.73536,-1.65311 -20.56274,-2.36964 -2.82738,-0.71653 -11.75014,-2.87868 -19.82836,-4.80479 -8.8254,-2.10421 -21.7224,-6.66775 -32.31288,-11.43368 -9.69386,-4.36258 -19.60804,-8.35202 -22.03151,-8.86557 -5.48313,-1.16183 -17.804,-7.35502 -29.37534,-14.76584 C 147.31324,535.49209 140.10053,533.3233 113.99782,531.62114 76.429563,529.17129 66.768744,527.98666 50.411456,523.82455 29.663372,518.54511 18.178869,513.30202 11.322611,505.97907 5.0400955,499.26888 3.9922228,496.04722 1.1291969,474.63955 -0.88047649,459.61254 -0.43547071,441.86509 2.0429441,438.19889 2.5285528,437.48055 4.914707,427.74187 7.3454929,416.55738 10.382944,402.58153 13.663842,392.10638 17.836487,383.062 c 3.339242,-7.23797 7.016777,-15.84786 8.172309,-19.13308 1.15552,-3.28524 2.677243,-6.3065 3.381605,-6.71394 0.704362,-0.40746 2.755767,-5.57485 4.558676,-11.48312 8.04993,-26.38022 22.602942,-56.77935 36.320132,-75.86754 9.898527,-13.77431 10.414108,-14.07401 24.491882,-14.23684 l 11.892899,-0.13754 9.25216,-20.67567 c 13.1844,-29.46296 24.82801,-61.82102 27.27638,-75.80217 l 2.1037,-12.01292 11.52799,-9.78217 C 193.14479,106.38838 242.3248,75.340139 288.16731,54.291405 338.73941,31.071099 405.42805,11.218391 462.02186,2.536261 c 16.20082,-2.48539056 19.7931,-2.66609324 24.23465,-1.2189906 21.36393,6.9605369 54.88997,37.8419976 80.16637,73.8427346 24.77091,35.280745 49.72643,82.116535 71.40552,134.011825 4.79506,11.47843 8.3814,21.67252 7.96963,22.65353 -0.41176,0.98102 -2.46632,1.78367 -4.56566,1.78367 -3.2933,0 -3.67155,0.41452 -2.75688,3.02127 2.58117,7.35616 3.47635,13.09511 3.50835,22.49171 l 0.0342,10.07091 17.25878,0 c 23.21956,0 30.09549,1.19996 35.57357,6.20816 5.21712,4.76967 9.2765,16.34554 16.18735,46.16059 6.97001,30.07023 19.14487,75.05752 20.52626,75.84656 0.66671,0.38081 1.84616,4.3179 2.62101,8.74911 0.77485,4.4312 3.24169,16.10122 5.48187,25.93336 3.77771,16.58041 3.9263,18.37778 2.04937,24.78779 -1.91793,6.55 -2.49489,7.13029 -11.04237,11.10603 -4.96029,2.30721 -13.3933,7.04883 -18.74005,10.53692 -5.34673,3.48811 -13.18829,7.43251 -17.42568,8.76535 -9.88624,3.10962 -25.43053,10.21752 -31.58313,14.44196 -2.63888,1.81189 -7.92645,4.552 -11.75013,6.08915 -3.8237,1.53713 -13.29741,6.29033 -21.0527,10.56264 -7.75529,4.2723 -19.32183,9.62466 -25.70342,11.89428 -6.3816,2.26939 -15.89905,7.10642 -21.14989,10.74879 -5.25085,3.64237 -14.75304,10.23393 -21.11598,14.64817 -6.36296,4.41389 -18.70483,14.12147 -27.4264,21.57223 l -15.85736,13.54666 -106.9658,-0.20275 c -58.83119,-0.11138 -113.90573,-0.68287 -122.38786,-1.26965 z m 156.4237,-13.86434 c 24.71537,-2.93521 44.49641,-7.1095 55.05729,-11.61865 32.10163,-13.70592 74.30363,-41.00802 89.48966,-57.89412 5.98227,-6.65201 18.05607,-27.93497 20.1271,-35.47883 0.50327,-1.83325 1.21381,-3.06005 1.57897,-2.72622 0.36516,0.33383 -1.38668,6.68209 -3.89296,14.10724 -4.22879,12.52824 -4.40622,13.82995 -2.46423,18.07912 2.37865,5.20463 7.44312,8.95818 12.0868,8.95818 1.94565,0 8.3567,-4.47654 16.72408,-11.67764 l 13.56893,-11.67763 -0.91178,-6.08155 c -1.61491,-10.7715 -7.00468,-26.92568 -10.59942,-31.76846 -4.54131,-6.11801 -4.4126,-7.67635 0.97647,-11.82201 7.49464,-5.76541 26.58625,-8.91513 27.5384,-4.54326 0.36963,1.69713 -1.6045,3.18654 -7.3071,5.51296 -11.2293,4.5811 -13.30123,7.09391 -11.14511,13.51662 0.94552,2.81652 2.51072,5.39866 3.47824,5.7381 2.15019,0.75434 15.46034,-5.26185 18.11781,-8.18926 2.40405,-2.64826 8.32137,-2.76702 9.40357,-0.18875 0.53017,1.26311 -1.36149,3.09371 -5.47357,5.29684 -9.93102,5.32078 -17.05381,13.32717 -17.05381,19.16935 0,4.90311 5.7e-4,4.90353 3.10271,2.346 7.73297,-6.37535 29.86652,-35.61071 38.01388,-50.21105 3.10456,-5.56349 3.11045,-5.75185 0.76432,-24.42588 -4.45041,-35.42298 -12.85603,-65.71468 -24.40259,-87.94063 -6.52832,-12.56635 -11.0752,-16.5571 -18.86445,-16.5571 -10.38615,0 -9.99211,-1.80274 -10.8596,49.68316 -0.78112,46.35779 -2.27637,63.0406 -6.28558,70.12857 -2.6224,4.6362 -10.69462,9.37068 -33.60993,19.71272 -19.3572,8.73621 -34.94855,13.78788 -52.78878,17.10382 -9.55193,1.77541 -17.92729,2.0393 -46.26616,1.45766 -48.34903,-0.9923 -67.47615,-4.43923 -78.40502,-14.12944 -15.33562,-13.59756 -29.21568,-35.76748 -35.79846,-57.17911 l -3.99025,-12.97894 -28.70541,0.36316 -28.7054,0.36315 -0.3576,4.69976 c -2.85273,37.49243 -18.55901,62.9185 -42.855,69.37571 -15.74967,4.18585 -61.77778,0.0404 -97.45164,-8.77669 -20.61595,-5.09544 -38.50583,-11.65944 -61.97397,-22.73899 -15.18016,-7.16672 -20.01284,-10.15899 -23.82748,-14.7534 -12.65241,-15.23872 -9.537333,-34.36912 9.72793,-59.74155 10.26177,-13.51482 31.10747,-33.19008 35.16445,-33.19008 4.39025,0 5.06009,-2.42432 3.20491,-11.59918 -1.96205,-9.70333 -4.78491,-12.30102 -19.18077,-17.65075 -13.70014,-5.09119 -22.03151,-6.68018 -22.03151,-4.20195 0,2.62999 13.80959,13.97483 20.93725,17.20035 7.45165,3.37213 5.42593,3.50777 -10.86082,0.72723 -12.20817,-2.08424 -23.156303,-5.88027 -28.068828,-9.73226 -2.351121,-1.84353 -2.570348,-1.72698 -2.570348,1.36654 0,4.33857 5.335774,9.17375 15.461026,14.01051 8.0621,3.85121 10.48592,7.19394 5.21636,7.19394 -1.55261,0 -8.65263,-1.81276 -15.77782,-4.02837 -14.482492,-4.50337 -16.649699,-4.79983 -16.649699,-2.2776 0,4.0824 13.219009,12.85892 22.398697,14.87123 5.082022,1.11404 5.245472,4.29468 0.279245,5.43421 -7.372459,1.69166 -19.782565,-1.87931 -26.736508,-7.69338 -4.674563,-3.9083 -6.871561,-1.51383 -5.618769,6.12385 0.837699,5.10706 1.693976,6.23322 6.249497,8.21927 9.789023,4.26766 19.584283,10.84748 19.584283,13.15544 0,4.41032 -3.353549,4.09253 -14.842882,-1.40652 -13.057556,-6.24962 -16.648946,-6.7684 -19.004157,-2.74508 -2.110173,3.6047 1.352334,7.40654 7.928704,8.70575 8.510687,1.68135 18.467182,7.10898 19.4222,10.58771 1.186342,4.32137 -0.20651,6.10781 -4.762128,6.10781 -2.288773,0 -4.918617,-1.36865 -6.774507,-3.52567 -3.344751,-3.88743 -13.188429,-8.48389 -18.267553,-8.52993 -4.425752,-0.0402 -6.599637,3.94247 -4.362918,7.99297 1.146686,2.07654 4.498233,3.9934 9.819117,5.61586 4.669321,1.42377 9.782677,4.17461 12.117331,6.51873 7.827282,7.85904 3.843138,8.83517 -10.587478,2.59396 -11.188318,-4.83893 -15.533949,-4.48302 -16.944359,1.38774 -1.517221,6.3154 0.222223,8.89327 7.744054,11.47654 13.529877,4.64669 19.314042,10.71239 14.453017,15.15649 -2.130111,1.94741 -2.683517,1.89433 -6.393221,-0.61308 -10.238118,-6.92 -18.415456,-8.98485 -20.060565,-5.06546 -2.846705,6.7821 1.10817,13.14271 11.700434,18.81775 11.94583,6.40026 5.733539,11.32218 -6.755254,5.35207 -9.448898,-4.51692 -15.745987,-4.61793 -16.939161,-0.27171 -0.482369,1.7571 -0.660204,4.90612 -0.395169,6.99782 0.425227,3.35596 1.582227,4.14859 9.84079,6.74155 8.936083,2.80567 16.438074,7.59817 14.568897,9.30701 -0.482915,0.4415 -5.307675,-0.4481 -10.721681,-1.97687 -12.061997,-3.40603 -19.154386,-3.60612 -20.426132,-0.57626 -1.928905,4.59549 0.512802,7.09182 7.801252,7.97573 13.898447,1.68555 27.447429,11.05962 22.509796,15.57374 -1.467407,1.34155 -2.786928,1.31762 -6.587939,-0.11951 -22.311315,-8.4356 -24.581328,-8.19233 -24.581328,2.63443 0,4.29699 0.606471,9.27103 1.34771,11.05341 3.226086,7.75748 35.996401,27.01067 44.6076,26.20784 4.07848,-0.38025 4.972387,-1.69412 15.348635,-22.55977 6.059842,-12.1858 11.82049,-25.47941 12.801403,-29.54134 0.986253,-4.08397 2.524685,-7.24267 3.441563,-7.06618 0.911943,0.17555 4.355403,-3.90317 7.652153,-9.06382 6.24748,-9.77964 10.18814,-11.8567 13.09002,-6.89953 1.06578,1.82061 0.72457,3.72733 -1.27841,7.14391 -1.50271,2.56326 -3.19615,8.05536 -3.76322,12.20469 -0.94067,6.88305 -1.55535,7.87504 -7.01394,11.31941 -4.85445,3.06315 -7.28162,6.30791 -12.868398,17.2031 -8.185803,15.9637 -12.065552,26.33468 -11.416342,30.51708 1.007318,6.48954 22.25622,11.37285 34.0297,7.8205 7.72739,-2.33151 15.25814,-14.88614 23.39903,-39.00898 1.29724,-3.84394 3.01324,-6.21515 4.71618,-6.51689 2.46661,-0.4371 2.6024,0.33224 1.72797,9.78945 -1.11275,12.03463 0.9087,27.07001 4.68599,34.85418 3.08031,6.34784 21.04845,22.8567 36.45845,33.49766 11.52974,7.96134 16.3419,9.60117 54.08337,18.42966 37.34981,8.737 72.88494,14.35407 109.42316,17.29662 20.20756,1.62751 72.82282,0.5914 93.26671,-1.83653 z m -63.80954,-71.19341 -3.14329,-3.05891 5.27318,-4.23279 c 10.35592,-8.31275 26.78414,-14.41043 45.80124,-17.00011 12.15548,-1.65531 44.51938,5.09188 44.51938,9.28134 0,0.91357 -0.82619,2.69133 -1.83597,3.95058 -1.71941,2.14417 -2.39535,2.10828 -10.64855,-0.56554 -10.81344,-3.50325 -29.56024,-4.75314 -40.39111,-2.69298 -10.24488,1.94871 -20.87082,6.46731 -29.59873,12.58665 l -6.83284,4.79067 -3.14331,-3.05891 z m 38.55543,-1.62958 c 4.26173,-2.03793 19.00999,-4.4926 26.99264,-4.4926 5.59647,0 6.33924,0.35419 6.33581,3.02127 -0.005,2.97118 -0.3071,3.02128 -18.28683,3.02128 -14.71056,0 -17.64957,-0.30286 -15.04162,-1.54995 z M 266.92689,426.8921 c 15.51282,-6.86551 27.88208,-28.13597 32.89128,-56.56059 2.53086,-14.36131 -0.0281,-21.24268 -7.8998,-21.24268 -2.5944,0 -3.60764,1.16849 -4.94862,5.70685 -0.92744,3.13876 -2.75112,6.91537 -4.05261,8.39243 -2.33346,2.64823 -2.35366,2.64344 -1.45382,-0.34468 0.50189,-1.66663 0.18266,-6.24442 -0.70939,-10.17285 l -1.62191,-7.14261 -11.61979,-5.66024 C 245.88368,329.33201 223.8166,324.116 194.72339,322.66262 c -24.63502,-1.23067 -31.05226,-0.12998 -38.96765,6.68365 -21.65047,18.63696 -29.91212,37.34988 -24.29236,55.02309 2.95017,9.27784 4.70439,10.62916 4.14943,3.19647 -0.22909,-3.06827 0.43185,-8.59995 1.46876,-12.29263 1.62603,-5.79065 2.43433,-6.7718 5.87783,-7.13472 l 3.99254,-0.42078 -0.86363,8.47751 c -1.225,12.02491 1.3256,16.8536 12.59943,23.85285 17.3034,10.74265 42.08563,18.96147 76.96376,25.52437 25.31924,4.76426 23.65127,4.69388 31.27539,1.31967 z m -33.12014,-23.75812 c -10.23459,-4.77112 -14.46673,-15.70832 -9.66098,-24.96706 3.44748,-6.64192 10.31178,-10.27905 19.3994,-10.27905 6.14722,0 8.17897,0.7002 12.93261,4.45696 5.1642,4.0812 5.68697,5.12834 6.20077,12.42079 0.67378,9.56287 -2.38038,15.04302 -10.29799,18.47792 -6.61877,2.87141 -12.25055,2.83818 -18.57381,-0.10961 z m 18.2862,-10.25922 c 2.37528,-1.58787 2.50088,-2.19358 0.83527,-4.02837 -1.97204,-2.17236 -10.86557,-2.94707 -15.43383,-1.34442 -2.76222,0.96905 -3.10123,5.3881 -0.48732,6.35236 3.76038,1.3872 12.383,0.82731 15.08588,-0.97957 z m 272.29864,27.21075 c 21.83147,-3.278 35.04386,-6.82259 39.46383,-10.58723 2.40807,-2.05105 3.25708,-4.31059 3.25708,-8.66849 0,-6.38533 2.74633,-10.11452 7.44875,-10.11452 2.25076,0 2.83262,0.95244 2.83262,4.63659 0,6.08424 2.77821,11.47687 5.91275,11.47687 2.3894,0 9.90376,-4.54025 11.94292,-7.21602 2.40159,-3.15139 4.81124,-30.67361 4.77619,-54.55225 -0.0671,-45.72613 -8.87663,-76.15235 -24.10547,-83.25514 -7.19425,-3.35541 -21.80411,-3.58093 -33.55075,-0.51788 -24.81548,6.47086 -73.8125,34.91786 -101.2038,58.75749 -6.14708,5.35002 -6.24449,5.57706 -6.38866,14.8885 -0.26661,17.21886 -3.09269,20.5177 -9.29212,10.8465 -4.81644,-7.51369 -10.71001,-11.53844 -12.69584,-8.67002 -2.29059,3.30862 -1.58599,33.14698 1.01013,42.77727 2.86236,10.61795 10.25938,25.55567 16.44517,33.20981 3.92773,4.86006 5.64523,5.81133 13.04652,7.22607 23.22237,4.43886 50.48784,4.35901 81.10068,-0.23755 z m -38.79567,-77.65622 c -10.49203,-3.99374 -15.48809,-17.53388 -9.89107,-26.80641 5.10302,-8.45415 18.59345,-12.05469 28.18181,-7.52165 13.51769,6.39071 13.50451,26.53083 -0.0217,33.16281 -5.22655,2.56262 -13.25304,3.07456 -18.26902,1.16525 z m 17.71167,-22.12834 c 2.53206,-1.71592 2.60455,-2.15447 0.64792,-3.91934 -3.74237,-3.37559 -15.75832,-3.37343 -17.17556,0.002 -2.08064,4.95696 10.56897,7.95433 16.52764,3.91625 z m -112.44717,16.03144 c 4.0888,-13.35115 21.2952,-34.68767 41.32387,-51.243 17.94604,-14.83386 40.74383,-28.85348 69.56807,-42.78122 8.88604,-4.29371 16.43866,-8.01377 16.78361,-8.2668 0.85705,-0.62874 -3.08301,-3.41735 -16.0296,-11.34512 -12.88068,-7.88738 -10.08851,-7.83744 -55.80382,-0.99835 -55.87989,8.35969 -86.59765,18.38973 -91.90852,30.0102 -1.60073,3.5025 -2.70868,4.33654 -5.02504,3.78276 -3.41985,-0.81762 -3.5624,-1.51347 -1.37,-6.68805 0.88086,-2.07905 4.5286,-12.54177 8.10609,-23.25051 3.57747,-10.70874 6.86696,-20.52788 7.31,-21.82032 0.69986,-2.04166 -0.25005,-2.34986 -7.24248,-2.34986 -14.79207,0 -46.49436,7.26939 -46.49436,10.66123 0,0.5224 4.1309,2.49474 9.1798,4.38298 7.44951,2.78607 9.26412,4.06532 9.62723,6.78698 0.34903,2.6161 -0.35278,3.53744 -3.19059,4.18859 -4.35167,0.99851 -7.50654,8.28205 -6.10834,14.10204 l 0.92669,3.85725 -8.79325,0.58149 c -7.19141,0.47557 -12.35599,2.21216 -28.35049,9.53284 -10.75647,4.92324 -26.82762,13.13893 -35.71366,18.2571 -8.88604,5.11816 -16.35625,9.12984 -16.60046,8.91483 -0.24422,-0.215 1.23862,-9.02424 3.29517,-19.57606 2.05653,-10.55183 3.54961,-19.35845 3.31794,-19.57024 -0.23166,-0.2118 -7.663,3.24043 -16.51406,7.67162 -11.21946,5.61691 -18.45366,10.32113 -23.88873,15.53428 -9.26109,8.88293 -27.37581,33.17019 -25.22821,33.82466 0.8273,0.25211 7.93522,-0.17561 15.79538,-0.95051 52.93023,-5.21812 96.23536,-1.93416 118.5671,8.9913 13.89255,6.79674 24.24123,19.89612 24.24123,30.68462 l 0,3.11777 29.18445,0 29.18446,0 1.85052,-6.0425 z M 161.09535,302.40637 c 0.86116,-0.54259 3.7392,-4.49377 6.39564,-8.78041 7.15729,-11.54953 20.61916,-27.56428 29.52331,-35.122 7.13661,-6.05745 8.16167,-7.68141 11.31998,-17.93406 3.91183,-12.69868 4.82537,-10.50532 -7.91081,-18.99337 l -6.10668,-4.0698 -4.50385,8.79901 c -6.45228,12.60557 -18.6251,29.18594 -30.52225,41.57376 l -10.2886,10.71294 2.69137,4.14923 c 1.48026,2.28208 3.11692,7.87143 3.63704,12.4208 0.90187,7.88854 2.18424,9.49992 5.76485,7.2439 z m -13.63911,-32.20636 c 7.85607,-16.17574 16.31653,-48.52609 22.48225,-85.96555 l 2.49226,-15.13346 9.34678,-6.71532 C 252.2283,111.76934 344.29376,79.960819 440.06414,73.147973 l 11.75013,-0.835878 14.68768,8.015236 c 54.14637,29.548329 87.60417,75.913299 91.35242,126.593959 l 0.85657,11.58172 8.23989,-2.73539 c 6.39555,-2.1231 12.05304,-2.76182 25.27567,-2.85359 l 17.03577,-0.11814 -4.71437,-12.7565 C 589.47397,159.25134 566.26142,120.11762 540.4306,91.944938 523.49767,73.476816 506.55603,60.193474 487.06468,50.102634 467.77293,40.115108 466.28232,39.755006 451.5929,41.533736 396.75965,48.173405 330.13446,66.320184 278.49975,88.679315 238.65025,105.93514 196.51256,131.08997 170.21735,153.32034 l -8.40621,7.10675 -5.30283,22.10337 c -10.42185,43.44085 -20.60315,69.88709 -29.99208,77.9054 l -4.4728,3.81985 4.7898,2.71023 c 2.63438,1.49065 6.73105,4.56536 9.1037,6.83269 2.37265,2.26733 5.09141,4.12242 6.04169,4.12242 0.95027,0 3.4152,-3.47447 5.47762,-7.72104 z m 132.51227,-20.02549 c 8.88604,-4.02729 19.95687,-8.29261 24.60185,-9.47849 7.49327,-1.91306 8.44603,-2.54764 8.45091,-5.62866 0.002,-1.90989 1.32509,-5.45124 2.93796,-7.86967 l 2.93245,-4.39715 -3.30513,-1.19104 c -6.97818,-2.51466 -20.19599,-8.13007 -20.19599,-8.58001 0,-0.25937 5.50131,-4.45733 12.2251,-9.32879 17.48082,-12.66504 16.91078,-11.50672 10.405,-21.14285 -3.04322,-4.50752 -6.82884,-8.82945 -8.41248,-9.60429 -7.32474,-3.58385 -58.7963,8.10861 -84.11169,19.1071 -11.52228,5.00595 -27.0549,16.0264 -27.03453,19.18109 0.006,0.85473 2.15359,2.91113 4.7735,4.56977 2.61989,1.65863 7.25945,4.98203 10.31011,7.38533 l 5.54666,4.36962 -3.03346,9.90677 c -1.66841,5.44871 -2.84018,10.08347 -2.60394,10.29945 0.23624,0.21597 7.85363,-3.45454 16.92752,-8.15671 l 16.49802,-8.54937 -0.77879,4.96388 c -0.85519,5.45089 -4.67305,25.67592 -5.92911,31.40942 -0.78486,3.5826 -0.67273,3.55156 11.42349,-3.16248 6.71886,-3.72932 19.48651,-10.07565 28.37255,-14.10292 z m 114.80793,-24.62345 c 17.72515,-4.55025 40.03971,-8.65799 65.11606,-11.98685 l 16.89082,-2.24223 -13.95329,-3.14337 c -7.67431,-1.72886 -14.55683,-3.45766 -15.29446,-3.84179 -0.73765,-0.38412 6.20228,-4.17464 15.42205,-8.42338 l 16.76323,-7.72501 -8.07822,-3.41333 c -9.00757,-3.80603 -29.9486,-7.56319 -42.15441,-7.56319 -7.39001,0 -7.95285,-0.22085 -7.51863,-2.95016 0.51841,-3.25857 10.52702,-7.42775 42.863,-17.85488 l 17.42462,-5.61879 -8.61202,-1.68091 c -14.87184,-2.90273 -49.31765,-3.382 -64.87758,-0.9027 -16.54037,2.63551 -33.57539,8.45326 -45.65871,15.59321 l -8.96765,5.29892 0,13.45717 0,13.45718 9.70413,0 c 7.15797,0 9.52021,0.44039 9.00318,1.67848 -1.13576,2.71964 -12.83224,38.36051 -12.83224,39.10166 0,0.37282 4.26935,-1.0919 9.48744,-3.25495 5.21806,-2.16307 16.59078,-5.75635 25.27268,-7.98508 z m 142.12947,1.50644 8.71573,-3.66024 -4.58498,-1.73626 c -3.89322,-1.47432 -4.82703,-2.78057 -6.18902,-8.65771 -4.49984,-19.41697 -18.04471,-50.27356 -26.1321,-59.53157 l -2.55688,-2.92697 -16.1759,4.5122 c -8.89675,2.4817 -24.07833,7.19837 -33.73685,10.48146 l -17.56095,5.96926 8.03343,0.92783 c 11.10146,1.28216 22.82203,4.41633 30.73658,8.21915 6.95056,3.33965 14.11623,8.35881 13.12251,9.1916 -0.31639,0.26515 -6.52377,3.24074 -13.79416,6.61241 -7.2704,3.37167 -11.89702,6.16075 -10.28137,6.19796 4.89501,0.11281 29.26328,7.0626 30.83975,8.79554 0.81023,0.89062 6.56633,4.78667 12.79132,8.6579 6.22502,3.87123 12.08923,7.88793 13.03157,8.926 2.27012,2.5007 3.49543,2.32429 13.74132,-1.97856 z m -199.60714,-29.91069 9.49865,-1.60006 0,-13.76256 0,-13.76253 6.24226,-4.91034 c 8.76736,-6.89666 27.56691,-14.89962 44.61851,-18.99408 12.43402,-2.98567 17.74224,-3.49867 37.26526,-3.60125 22.94045,-0.12059 35.20708,1.17715 56.05787,5.93038 6.19326,1.41184 12.0176,2.56698 12.94298,2.56698 2.69093,0 -7.10289,-11.60797 -19.14184,-22.68759 -11.30986,-10.40861 -25.95595,-20.2209 -38.47565,-25.7771 -6.89442,-3.059727 -7.23027,-3.076908 -28.64096,-1.464223 -68.79367,5.181633 -139.58985,29.156403 -196.37551,66.501593 -8.03834,5.28644 -15.22957,9.99811 -15.9805,10.4704 -1.61491,1.01567 -5.24598,22.64009 -3.80163,22.64009 0.54468,0 1.83313,-0.9284 2.86322,-2.06313 3.27476,-3.60739 20.09266,-11.46733 34.86736,-16.29545 19.43133,-6.34979 53.56189,-13.86834 62.95568,-13.86834 11.84982,0 13.89101,1.28465 22.5485,14.19124 l 7.89659,11.77223 -5.0384,3.98278 c -2.77112,2.19052 -3.86,3.61114 -2.41972,3.15691 1.44027,-0.45423 6.89307,-1.54589 12.11733,-2.42595 z"
       id="path3030"
       inkscape:connector-curvature="0" />
  </g>
</svg>
