<?xml version="1.0" encoding="UTF-8" standalone="no"?>
<!-- Created with Inkscape (http://www.inkscape.org/) -->

<svg
   xmlns:dc="http://purl.org/dc/elements/1.1/"
   xmlns:cc="http://creativecommons.org/ns#"
   xmlns:rdf="http://www.w3.org/1999/02/22-rdf-syntax-ns#"
   xmlns:svg="http://www.w3.org/2000/svg"
   xmlns="http://www.w3.org/2000/svg"
   xmlns:sodipodi="http://sodipodi.sourceforge.net/DTD/sodipodi-0.dtd"
   xmlns:inkscape="http://www.inkscape.org/namespaces/inkscape"
   width="100"
   height="1000"
   id="svg2994"
   version="1.1"
   inkscape:version="0.48.2 r9819"
   sodipodi:docname="bg-hd.svg">
  <defs
     id="defs2996" />
  <sodipodi:namedview
     id="base"
     pagecolor="#ffffff"
     bordercolor="#666666"
     borderopacity="1.0"
     inkscape:pageopacity="0.0"
     inkscape:pageshadow="2"
     inkscape:zoom="3.959798"
     inkscape:cx="135.2974"
     inkscape:cy="956.45448"
     inkscape:document-units="px"
     inkscape:current-layer="layer1"
     showgrid="false"
     inkscape:window-width="1366"
     inkscape:window-height="705"
     inkscape:window-x="-8"
     inkscape:window-y="-8"
     inkscape:window-maximized="1" />
  <metadata
     id="metadata2999">
    <rdf:RDF>
      <cc:Work
         rdf:about="">
        <dc:format>image/svg+xml</dc:format>
        <dc:type
           rdf:resource="http://purl.org/dc/dcmitype/StillImage" />
        <dc:title></dc:title>
      </cc:Work>
    </rdf:RDF>
  </metadata>
  <g
     inkscape:label="Layer 1"
     inkscape:groupmode="layer"
     id="layer1"
     transform="translate(0,-52.36218)">
    <path
       style="fill:#999999"
       d="m 37.093384,127.39594 c -1.0857,-0.0746 -2.270094,-0.21 -2.631993,-0.30102 -0.361898,-0.091 -1.503996,-0.36569 -2.537992,-0.61038 -1.129632,-0.26731 -2.78042,-0.84705 -4.135982,-1.45249 -1.240796,-0.5542 -2.50979,-1.061 -2.819988,-1.12624 -0.701831,-0.14759 -2.278877,-0.93435 -3.759986,-1.87578 -2.315662,-1.47192 -3.238878,-1.74744 -6.579973,-1.96368 -4.8086575,-0.31121 -6.0452235,-0.4617 -8.1389242,-0.99044 -2.655712,-0.67067 -4.125705,-1.33673 -5.003292,-2.26701 -0.804149,-0.85243 -0.938275,-1.2617 -1.304736,-3.98123 -0.257234,-1.90896 -0.200275,-4.16352 0.116958,-4.62926 0.06216,-0.0913 0.367579,-1.32841 0.678715,-2.74924 0.388787,-1.77543 0.808735,-3.10615 1.342825,-4.25511 0.427417,-0.91947 0.898134,-2.013238 1.04604,-2.430578 0.147905,-0.41734 0.342681,-0.80114 0.432839,-0.85291 0.09016,-0.0517 0.352732,-0.7082 0.583501,-1.458759 1.030374,-3.35123 2.8931307,-7.212997 4.6489027,-9.63788 1.2669895,-1.749825 1.3329845,-1.7879 3.1349115,-1.808583 l 1.522266,-0.0175 1.184258,-2.626542 c 1.687579,-3.74285 3.177937,-7.853467 3.491321,-9.629576 l 0.26927,-1.526066 1.47556,-1.242684 c 4.65024,-3.916333 10.945182,-7.860567 16.812932,-10.5345 6.473125,-2.949808 15.009134,-5.471808 22.253026,-6.57475 2.073675,-0.315734 2.533475,-0.338684 3.101992,-0.154859 2.734533,0.884242 7.025798,4.807284 10.261123,9.380659 3.170625,4.481908 6.364885,10.431725 9.139765,17.024276 0.61376,1.458166 1.0728,2.753175 1.02009,2.8778 -0.0527,0.124625 -0.31568,0.226591 -0.58439,0.226591 -0.42153,0 -0.46995,0.05267 -0.35287,0.383809 0.33038,0.934491 0.44496,1.663541 0.44906,2.85725 l 0.004,1.279358 2.20908,0 c 2.97205,0 3.85216,0.152442 4.55335,0.788659 0.66778,0.605916 1.18737,2.076466 2.07195,5.864042 0.89214,3.819985 2.4505,9.534963 2.62731,9.635203 0.0853,0.0483 0.23631,0.54853 0.33549,1.11145 0.0992,0.56292 0.41492,2.04543 0.70166,3.29446 0.48355,2.1063 0.50256,2.33463 0.26232,3.14893 -0.24549,0.83208 -0.31934,0.9058 -1.4134,1.41086 -0.63491,0.2931 -1.71432,0.89545 -2.39869,1.33857 -0.68437,0.44311 -1.68808,0.94419 -2.23045,1.1135 -1.26542,0.39504 -3.25505,1.298 -4.04258,1.83465 -0.33777,0.23017 -1.01456,0.57826 -1.50399,0.77354 -0.48942,0.19526 -1.70204,0.79909 -2.6947,1.34182 -0.99266,0.54274 -2.47315,1.22268 -3.28999,1.511 -0.81682,0.28829 -2.03504,0.90277 -2.70714,1.36548 -0.6721,0.46271 -1.888359,1.30007 -2.702801,1.86084 -0.81445,0.56072 -2.394183,1.79393 -3.510525,2.74044 l -2.029706,1.72091 -13.691409,-0.0257 c -7.530267,-0.0142 -14.5797,-0.0867 -15.665392,-0.16129 z m 20.021909,-1.76125 c 3.163517,-0.37288 5.69545,-0.90317 7.047225,-1.47599 4.10894,-1.74114 9.510715,-5.20948 11.454495,-7.35461 0.76571,-0.84505 2.31114,-3.54873 2.57623,-4.50708 0.0644,-0.23288 0.15537,-0.38873 0.2021,-0.34632 0.0467,0.0424 -0.17749,0.84887 -0.49828,1.79212 -0.54129,1.59153 -0.564,1.75689 -0.31543,2.29669 0.30447,0.66117 0.95271,1.13801 1.54709,1.13801 0.24904,0 1.06964,-0.56868 2.14064,-1.48348 l 1.7368,-1.48347 -0.1167,-0.77257 c -0.2067,-1.36837 -0.89659,-3.42053 -1.3567,-4.03573 -0.58129,-0.7772 -0.56481,-0.97517 0.12498,-1.50181 0.9593,-0.73242 3.40298,-1.13254 3.52485,-0.57716 0.0473,0.21559 -0.20537,0.40481 -0.93529,0.70034 -1.43733,0.58197 -1.70253,0.90118 -1.42654,1.71709 0.12102,0.3578 0.32136,0.68583 0.44519,0.72894 0.27523,0.0958 1.9789,-0.66844 2.31905,-1.04032 0.30771,-0.33643 1.06512,-0.35151 1.20364,-0.024 0.0678,0.16046 -0.17427,0.39301 -0.7006,0.67288 -1.27116,0.67593 -2.18286,1.69303 -2.18286,2.43519 0,0.62287 7e-5,0.62292 0.39714,0.29803 0.98981,-0.8099 3.82286,-4.52383 4.8657,-6.37859 0.39738,-0.70676 0.39813,-0.73069 0.0978,-3.10296 -0.56964,-4.499978 -1.64555,-8.348098 -3.12348,-11.171582 -0.83561,-1.596375 -1.41761,-2.103342 -2.41461,-2.103342 -1.32941,0 -1.27897,-0.229016 -1.39001,6.311537 -0.1,5.889077 -0.29137,8.008387 -0.80454,8.908807 -0.33567,0.58896 -1.36889,1.19041 -4.302,2.50422 -2.47768,1.10981 -4.47335,1.75155 -6.756858,2.1728 -1.222634,0.22553 -2.294659,0.25906 -5.921973,0.18518 -6.188581,-0.12606 -8.636814,-0.56395 -10.035681,-1.79495 -1.962933,-1.72737 -3.73955,-4.54374 -4.582133,-7.26378 l -0.510742,-1.648788 -3.674234,0.0462 -3.674233,0.0462 -0.04575,0.597038 c -0.36515,4.76287 -2.375525,7.99288 -5.485359,8.81318 -2.015926,0.53175 -7.907432,0.005 -12.473614,-1.11495 -2.638801,-0.6473 -4.928667,-1.48116 -7.932541,-2.88866 -1.943031,-0.91043 -2.561607,-1.29055 -3.049871,-1.8742 -1.619481,-1.93587 -1.220759,-4.366108 1.245157,-7.589307 1.313484,-1.716859 3.981691,-4.216318 4.500977,-4.216318 0.561945,0 0.647682,-0.307975 0.410224,-1.473508 C 18.993413,88.543 18.63209,88.213 16.78945,87.533392 c -1.753591,-0.646759 -2.819986,-0.848625 -2.819986,-0.5338 0,0.334108 1.767599,1.7753 2.679924,2.185058 0.953797,0.428375 0.694507,0.445608 -1.390164,0.09238 -1.562619,-0.264775 -2.963961,-0.747 -3.592751,-1.236341 -0.30094,-0.234192 -0.329004,-0.219392 -0.329004,0.1736 0,0.55115 0.682972,1.165391 1.978983,1.779833 1.031933,0.489242 1.342177,0.913883 0.667683,0.913883 -0.198729,0 -1.107517,-0.230283 -2.019529,-0.511741 -1.853731,-0.572092 -2.1311265,-0.609759 -2.1311265,-0.289342 0,0.518608 1.6920065,1.633542 2.8669865,1.889175 0.650488,0.141525 0.671411,0.545583 0.03574,0.690342 -0.943659,0.2149 -2.532128,-0.238742 -3.4222175,-0.977334 -0.598338,-0.496491 -0.879547,-0.192308 -0.719192,0.777942 0.107226,0.648784 0.216825,0.791842 0.799923,1.044142 1.2529765,0.542142 2.5067475,1.378017 2.5067475,1.671208 0,0.560266 -0.429248,0.519896 -1.899857,-0.178675 -1.6713425,-0.793925 -2.1310325,-0.859825 -2.4324955,-0.348725 -0.270098,0.457925 0.173097,0.940896 1.014862,1.105946 1.089348,0.21359 2.3637595,0.90309 2.4859995,1.345009 0.151849,0.54897 -0.02643,0.77591 -0.609542,0.77591 -0.292961,0 -0.6295715,-0.17387 -0.8671235,-0.44788 -0.428119,-0.493839 -1.688093,-1.077759 -2.338213,-1.083609 -0.5664837,-0.005 -0.8447377,0.50083 -0.5584427,1.015389 0.146775,0.26379 0.5757647,0.5073 1.2568277,0.71342 0.597664,0.18086 1.252162,0.53032 1.550994,0.82811 1.0018765,0.99837 0.491915,1.122378 -1.355174,0.32952 -1.4320827,-0.61472 -1.9883137,-0.56951 -2.1688427,0.17629 -0.194201,0.802278 0.02844,1.129768 0.991222,1.457928 1.7318007,0.59029 2.4721577,1.36085 1.8499587,1.92541 -0.27265,0.24739 -0.343485,0.24065 -0.81832,-0.0779 -1.3104587,-0.87908 -2.3571407,-1.14139 -2.5677117,-0.64349 -0.364372,0.86157 0.141843,1.66959 1.497633,2.39052 1.5290407,0.81306 0.7338797,1.43833 -0.86466,0.6799 -1.20944,-0.5738 -2.015454,-0.58664 -2.168178,-0.0345 -0.06174,0.22322 -0.08451,0.62325 -0.05058,0.88898 0.05442,0.42632 0.202522,0.52702 1.259601,0.85642 1.143801,0.35642 2.104042,0.96524 1.864791,1.18231 -0.06181,0.0561 -0.679374,-0.0569 -1.372355,-0.25112 -1.543911,-0.43269 -2.451723,-0.45811 -2.614504,-0.0733 -0.246896,0.58379 0.06563,0.90091 0.998544,1.0132 1.778974,0.21412 3.5132167,1.40496 2.881207,1.97841 -0.187822,0.17043 -0.356718,0.16739 -0.843241,-0.0152 -2.855803,-1.07162 -3.14636,-1.04071 -3.14636,0.33466 0,0.54588 0.07762,1.17776 0.172504,1.40419 0.412933,0.98547 4.6074657,3.43131 5.7096837,3.32932 0.522038,-0.0483 0.636454,-0.21522 1.9645915,-2.86589 0.775648,-1.54803 1.512998,-3.23679 1.638555,-3.7528 0.126238,-0.51882 0.323154,-0.92008 0.440511,-0.89766 0.11673,0.0223 0.557485,-0.49584 0.97946,-1.15143 0.799665,-1.24236 1.304062,-1.50622 1.675497,-0.87649 0.13642,0.23129 0.09275,0.47351 -0.163632,0.90754 -0.192344,0.32562 -0.409103,1.02331 -0.481685,1.55042 -0.120405,0.8744 -0.19908,1.00042 -0.897771,1.43798 -0.621359,0.38912 -0.932033,0.80132 -1.647127,2.18541 -1.047767,2.02794 -1.544367,3.34543 -1.461271,3.87674 0.128938,0.8244 2.848753,1.44476 4.355734,0.99349 0.98909,-0.29619 1.95301,-1.89108 2.995027,-4.95553 0.166044,-0.48831 0.38569,-0.78955 0.603661,-0.82788 0.315723,-0.0555 0.333103,0.0422 0.221178,1.24361 -0.142433,1.52882 0.116312,3.43885 0.5998,4.42772 0.39427,0.8064 2.694156,2.90361 4.666605,4.25539 1.475783,1.01138 2.091728,1.21969 6.922563,2.34123 4.780696,1.10991 9.329121,1.82347 14.005938,2.19728 2.586533,0.20675 9.321175,0.0751 11.93795,-0.2333 z m -8.167492,-9.0441 -0.402333,-0.3886 0.674958,-0.53771 c 1.325533,-1.05602 3.428317,-1.83063 5.862467,-2.15962 1.555875,-0.21028 5.698392,0.64685 5.698392,1.17906 0,0.11606 -0.10575,0.3419 -0.235,0.50187 -0.220084,0.27239 -0.3066,0.26782 -1.362992,-0.0718 -1.384108,-0.44505 -3.78365,-0.60383 -5.169984,-0.34211 -1.311325,0.24756 -2.671425,0.82158 -3.788575,1.59896 l -0.874591,0.60858 -0.402342,-0.38859 z m 4.935017,-0.20702 c 0.545491,-0.25888 2.433242,-0.57072 3.455008,-0.57072 0.716342,0 0.811409,0.045 0.810975,0.38381 -5.91e-4,0.37745 -0.03933,0.38381 -2.340683,0.38381 -1.882925,0 -2.259109,-0.0385 -1.9253,-0.1969 z m -19.680736,-9.62152 c 1.98561,-0.87217 3.568852,-3.57428 4.210018,-7.185208 0.323942,-1.8244 -0.0033,-2.698579 -1.011158,-2.698579 -0.332075,0 -0.461767,0.148439 -0.633408,0.724969 -0.118717,0.39874 -0.35215,0.87851 -0.518725,1.06614 -0.298684,0.33643 -0.301267,0.33582 -0.186092,-0.0437 0.06425,-0.21172 0.02342,-0.79327 -0.0908,-1.29232 l -0.207603,-0.907359 -1.487309,-0.71905 c -2.768409,-1.33841 -5.592954,-2.001035 -9.316824,-2.18566 -3.153232,-0.156341 -3.974626,-0.0165 -4.987779,0.849059 -2.771215,2.367561 -3.82869,4.74476 -3.109373,6.989888 0.377616,1.17862 0.60215,1.35028 0.531116,0.40607 -0.02933,-0.38979 0.05527,-1.0925 0.187999,-1.5616 0.208131,-0.735628 0.311591,-0.860258 0.75235,-0.906368 l 0.511039,-0.0535 -0.110544,1.076948 c -0.156796,1.52759 0.169676,2.14101 1.612702,3.03016 2.2148,1.3647 5.386875,2.40878 9.851207,3.24251 3.24081,0.60522 3.027313,0.59629 4.003184,0.16764 z m -4.239309,-3.01813 c -1.310007,-0.6061 -1.851712,-1.99551 -1.236586,-3.17171 0.441271,-0.843758 1.319886,-1.305798 2.483086,-1.305798 0.786827,0 1.04689,0.0889 1.655346,0.56619 0.661009,0.518458 0.727921,0.651488 0.793687,1.577878 0.08624,1.21483 -0.304687,1.911 -1.318122,2.34736 -0.847191,0.36477 -1.568046,0.36055 -2.377411,-0.0139 z m 2.340595,-1.30329 c 0.304032,-0.20171 0.320109,-0.27866 0.106916,-0.51174 -0.252419,-0.27597 -1.390773,-0.37438 -1.975501,-0.17079 -0.35356,0.12311 -0.396952,0.68448 -0.06238,0.80697 0.481322,0.17623 1.585,0.1051 1.93096,-0.12444 z m 34.853673,3.45674 c 2.794383,-0.41642 4.485542,-0.86671 5.051292,-1.34496 0.308225,-0.26055 0.4169,-0.5476 0.4169,-1.1012 0,-0.81116 0.351525,-1.2849 0.953425,-1.2849 0.288095,0 0.362565,0.12099 0.362565,0.589 0,0.77292 0.35561,1.45798 0.75683,1.45798 0.30583,0 1.26766,-0.57678 1.52866,-0.91669 0.3074,-0.40034 0.61583,-3.896648 0.61135,-6.930077 -0.009,-5.808848 -1.1362,-9.674065 -3.08545,-10.576365 -0.920855,-0.426258 -2.790889,-0.454908 -4.294439,-0.06583 -3.176322,0.822033 -9.447848,4.435808 -12.953873,7.464292 -0.786816,0.679641 -0.799283,0.708483 -0.817741,1.891366 -0.03408,2.187406 -0.395859,2.606486 -1.189367,1.377887 -0.616492,-0.9545 -1.370859,-1.465787 -1.625042,-1.101395 -0.293192,0.420315 -0.203008,4.210844 0.129292,5.434232 0.366375,1.34886 1.313183,3.24648 2.10495,4.21883 0.502741,0.6174 0.722575,0.73824 1.669925,0.91797 2.972417,0.56389 6.462342,0.55375 10.380723,-0.0302 z m -4.965765,-9.865107 c -1.342958,-0.50734 -1.982441,-2.227421 -1.266041,-3.405363 0.653183,-1.073975 2.379925,-1.531375 3.607217,-0.955517 1.730241,0.81185 1.72855,3.370359 -0.0025,4.21286 -0.668984,0.32554 -1.696359,0.39057 -2.338401,0.14802 z m 2.267059,-2.81108 c 0.3241,-0.217983 0.333375,-0.2737 0.08292,-0.4979 -0.479017,-0.428817 -2.017034,-0.428542 -2.198442,3e-4 -0.266317,0.629709 1.352808,1.010484 2.115508,0.4975 z m -14.393009,2.036559 c 0.523358,-1.696067 2.725742,-4.406567 5.289367,-6.509684 2.297058,-1.884425 5.215133,-3.665417 8.904575,-5.434734 1.137392,-0.545458 2.104117,-1.018033 2.148267,-1.050175 0.1097,-0.07983 -0.394617,-0.434133 -2.051758,-1.441233 -1.648701,-1.001983 -1.291309,-0.995642 -7.142776,-0.126833 -7.152508,1.061983 -11.084325,2.33615 -11.7641,3.812366 -0.204892,0.444942 -0.346709,0.550892 -0.643192,0.480542 -0.437742,-0.103866 -0.455983,-0.192266 -0.175358,-0.849617 0.112741,-0.264116 0.579641,-1.59325 1.037558,-2.953641 0.457908,-1.360392 0.878958,-2.607775 0.935667,-2.771959 0.08958,-0.259366 -0.032,-0.298516 -0.927025,-0.298516 -1.893359,0 -5.951184,0.923475 -5.951184,1.354358 0,0.06633 0.52875,0.316917 1.175,0.556792 0.953517,0.353925 1.185784,0.516441 1.232259,0.862191 0.04467,0.332334 -0.04517,0.449375 -0.408384,0.5321 -0.557008,0.126842 -0.960825,1.052109 -0.781858,1.791459 l 0.118617,0.490008 -1.125517,0.07383 c -0.920484,0.06042 -1.581542,0.281025 -3.628809,1.211017 -1.376806,0.625417 -3.433876,1.669109 -4.571273,2.319292 -1.137399,0.650192 -2.093569,1.159817 -2.124826,1.132508 -0.03126,-0.02733 0.158542,-1.1464 0.421774,-2.486858 0.263229,-1.340459 0.454343,-2.459217 0.424689,-2.486117 -0.02965,-0.02692 -0.980848,0.41165 -2.113765,0.974567 -1.436067,0.71355 -2.362031,1.31115 -3.057709,1.973408 -1.185401,1.12845 -3.504048,4.213792 -3.229161,4.296934 0.105893,0.032 1.015694,-0.02233 2.021777,-0.12075 6.774962,-0.662884 12.317928,-0.245709 15.176344,1.142216 1.778226,0.863434 3.102834,2.527517 3.102834,3.89803 l 0,0.39608 3.73555,0 3.73555,0 0.236867,-0.767618 z M 20.655861,90.947933 c 0.110225,-0.06892 0.47861,-0.570867 0.81863,-1.115425 0.916117,-1.4672 2.639209,-3.501642 3.77892,-4.461742 0.913476,-0.769517 1.044678,-0.975817 1.448938,-2.278267 0.500704,-1.613183 0.617638,-1.33455 -1.012567,-2.412833 l -0.781644,-0.517008 -0.576484,1.117783 c -0.825878,1.601358 -2.383976,3.707659 -3.906784,5.28135 l -1.316924,1.360925 0.344493,0.5271 c 0.18947,0.289909 0.398958,0.99995 0.465536,1.577884 0.115433,1.002125 0.279574,1.206833 0.737886,0.920233 z m -1.745781,-4.09135 c 1.005563,-2.0549 2.088483,-6.164542 2.877686,-10.920692 l 0.319002,-1.922484 1.196368,-0.853083 C 32.320694,66.730249 44.104884,62.689432 56.363301,61.823965 l 1.503992,-0.106191 1.879992,1.018216 c 6.930625,3.753692 11.213156,9.643692 11.692923,16.081943 l 0.109641,1.471291 1.054684,-0.347491 c 0.818625,-0.269717 1.54277,-0.35085 3.23523,-0.362509 l 2.18055,-0.015 -0.60343,-1.620533 C 75.487453,72.762157 72.516291,67.790782 69.209999,64.211849 67.042624,61.86574 64.874127,60.178282 62.379276,58.89639 c -2.469308,-1.268775 -2.6601,-1.314516 -4.540316,-1.08855 -7.018551,0.843467 -15.546434,3.148758 -22.155576,5.989159 -5.100652,2.1921 -10.494192,5.387666 -13.859927,8.211708 l -1.075976,0.902817 -0.678753,2.807908 c -1.333974,5.518534 -2.637158,8.878151 -3.838924,9.896759 l -0.572509,0.485259 0.613084,0.344291 c 0.337194,0.189367 0.861562,0.579967 1.165256,0.868 0.303693,0.288034 0.651689,0.523692 0.773324,0.523692 0.121634,0 0.437137,-0.441383 0.701121,-0.980842 z m 16.961304,-2.54395 c 1.137391,-0.511609 2.554441,-1.053459 3.148983,-1.204109 0.959133,-0.243025 1.081075,-0.323641 1.0817,-0.715041 3e-4,-0.242625 0.169617,-0.6925 0.376059,-0.999725 l 0.375341,-0.558592 -0.42305,-0.151308 c -0.893192,-0.31945 -2.585042,-1.032809 -2.585042,-1.089967 0,-0.03292 0.704159,-0.566242 1.564792,-1.185083 2.237509,-1.608917 2.164542,-1.461767 1.331817,-2.685901 -0.389525,-0.572616 -0.874075,-1.12165 -1.076784,-1.220083 -0.93755,-0.455275 -7.525806,1.030083 -10.766124,2.427275 -1.474828,0.635942 -3.462973,2.035925 -3.460364,2.436684 7.4e-4,0.108583 0.275654,0.369816 0.610995,0.580525 0.335343,0.2107 0.929196,0.6329 1.319673,0.9382 l 0.709962,0.5551 -0.388274,1.258508 c -0.213556,0.692183 -0.363538,1.280958 -0.333301,1.3084 0.03024,0.02742 1.005249,-0.43885 2.16669,-1.0362 l 2.111714,-1.086067 -0.09969,0.630584 c -0.109462,0.692458 -0.598142,3.261758 -0.758916,3.990117 -0.100459,0.455116 -0.08611,0.451175 1.462188,-0.40175 0.859998,-0.473759 2.494231,-1.279967 3.631626,-1.791567 z m 14.695184,-3.128059 c 2.268783,-0.578041 5.125,-1.099875 8.334717,-1.522758 l 2.162,-0.284842 -1.786,-0.399316 c -0.982292,-0.219625 -1.863242,-0.43925 -1.957659,-0.488042 -0.09442,-0.04883 0.793884,-0.530333 1.973992,-1.070075 l 2.145658,-0.98135 -1.033991,-0.433617 c -1.15295,-0.4835 -3.833367,-0.960792 -5.395684,-0.960792 -0.945908,0 -1.017942,-0.02808 -0.962367,-0.374775 0.06633,-0.41395 1.347442,-0.943591 5.486384,-2.2682 l 2.230308,-0.713791 -1.102316,-0.213534 c -1.903567,-0.36875 -6.312559,-0.429633 -8.304201,-0.114675 -2.117133,0.3348 -4.297583,1.073867 -5.844225,1.980892 l -1.147842,0.67315 0,1.709542 0,1.709542 1.242109,0 c 0.916208,0 1.218566,0.05592 1.152391,0.213225 -0.145375,0.345491 -1.6425,4.87315 -1.6425,4.9673 0,0.04733 0.546467,-0.138709 1.214375,-0.413492 0.667901,-0.274792 2.123584,-0.731267 3.234851,-1.014392 z m 18.192281,0.191375 1.1156,-0.464983 -0.586875,-0.220567 c -0.498325,-0.187291 -0.61785,-0.353233 -0.792183,-1.099833 -0.575967,-2.46665 -2.309681,-6.386534 -3.344848,-7.562634 l -0.327283,-0.371825 -2.070475,0.573209 c -1.138767,0.315258 -3.081984,0.91445 -4.31825,1.331516 l -2.247767,0.758309 1.028267,0.117866 c 1.420958,0.162884 2.921166,0.561034 3.934216,1.044125 0.889659,0.424259 1.80685,1.061867 1.679659,1.167659 -0.0405,0.03367 -0.835034,0.411692 -1.765625,0.840008 -0.9306,0.428325 -1.5228,0.782642 -1.316,0.787367 0.626558,0.01433 3.745642,0.8972 3.947425,1.11735 0.103708,0.113142 0.840475,0.608075 1.637267,1.099858 0.796791,0.491784 1.547397,1.00205 1.668005,1.133917 0.290575,0.317683 0.447409,0.295267 1.758867,-0.251342 z m -25.549307,-3.799725 1.215809,-0.203266 0,-1.748334 0,-1.748333 0.799,-0.623784 c 1.1222,-0.876116 3.5285,-1.892783 5.711075,-2.412925 1.591525,-0.379283 2.270967,-0.444458 4.769875,-0.457491 2.936334,-0.01533 4.506434,0.149541 7.1753,0.753375 0.792717,0.17935 1.538226,0.3261 1.656667,0.3261 0.344434,0 -0.90915,-1.474625 -2.450108,-2.882134 -1.44765,-1.322267 -3.322317,-2.568775 -4.924809,-3.274608 -0.882475,-0.388692 -0.925466,-0.390875 -3.665983,-0.186009 -8.805451,0.65825 -17.867221,3.7039 -25.135671,8.448067 -1.028891,0.671567 -1.949353,1.270117 -2.045472,1.330117 -0.206704,0.129025 -0.671473,2.876092 -0.4866,2.876092 0.06972,0 0.234637,-0.117933 0.366486,-0.262092 0.419165,-0.458266 2.57182,-1.456758 4.46295,-2.0701 2.487171,-0.80665 6.855814,-1.761767 8.058198,-1.761767 1.51675,0 1.778025,0.163192 2.886167,1.802792 l 1.01075,1.495492 -0.644909,0.50595 c -0.3547,0.278275 -0.494075,0.458742 -0.309716,0.401042 0.18435,-0.05767 0.8823,-0.196384 1.550991,-0.308184 z"
       id="path3030"
       inkscape:connector-curvature="0" />
  </g>
</svg>
